<?xml version="1.0" encoding="UTF-8" standalone="no"?>
<!DOCTYPE svg PUBLIC "-//W3C//DTD SVG 1.1//EN"
 "http://www.w3.org/Graphics/SVG/1.1/DTD/svg11.dtd">
<!-- Generated by graphviz version 2.40.1 (20161225.0304)
 -->
<!-- Title: dependencies Pages: 1 -->
<svg width="504pt" height="211pt"
 viewBox="0.00 0.00 504.00 211.00" xmlns="http://www.w3.org/2000/svg" xmlns:xlink="http://www.w3.org/1999/xlink">
<g id="graph0" class="graph" transform="scale(1 1) rotate(0) translate(4 207)">
<title>dependencies</title>
<polygon fill="#ffffff" stroke="transparent" points="-4,4 -4,-207 500,-207 500,4 -4,4"/>
<text text-anchor="start" x="227.0091" y="-42.4" font-family="sans-serif" font-weight="bold" font-size="14.00" fill="#000000">Legend</text>
<polygon fill="#ffffb3" stroke="transparent" points="14,-10 14,-30 34,-30 34,-10 14,-10"/>
<text text-anchor="start" x="37.629" y="-15.4" font-family="sans-serif" font-size="14.00" fill="#000000"> &#160;Declarations</text>
<polygon fill="#8dd3c7" stroke="transparent" points="127,-10 127,-30 147,-30 147,-10 127,-10"/>
<text text-anchor="start" x="150.7251" y="-15.4" font-family="sans-serif" font-size="14.00" fill="#000000"> &#160;Module</text>
<polygon fill="#80b1d3" stroke="transparent" points="213,-10 213,-30 233,-30 233,-10 213,-10"/>
<text text-anchor="start" x="236.7812" y="-15.4" font-family="sans-serif" font-size="14.00" fill="#000000"> &#160;Bootstrap</text>
<polygon fill="#fdb462" stroke="transparent" points="310,-10 310,-30 330,-30 330,-10 310,-10"/>
<text text-anchor="start" x="333.6732" y="-15.4" font-family="sans-serif" font-size="14.00" fill="#000000"> &#160;Providers</text>
<polygon fill="#fb8072" stroke="transparent" points="406,-10 406,-30 426,-30 426,-10 406,-10"/>
<text text-anchor="start" x="429.7258" y="-15.4" font-family="sans-serif" font-size="14.00" fill="#000000"> &#160;Exports</text>
<g id="clust1" class="cluster">
<title>cluster_FruitBasketModule</title>
<polygon fill="none" stroke="#000000" stroke-dasharray="1,5" points="71,-70 71,-195 425,-195 425,-70 71,-70"/>
</g>
<g id="clust2" class="cluster">
<title>cluster_FruitBasketModule_declarations</title>
<polygon fill="none" stroke="#000000" points="79,-78 79,-130 417,-130 417,-78 79,-78"/>
</g>
<!-- BasketUiComponent -->
<g id="node1" class="node">
<title>BasketUiComponent</title>
<polygon fill="#ffffb3" stroke="#000000" points="408.9313,-122 275.0687,-122 275.0687,-86 408.9313,-86 408.9313,-122"/>
<text text-anchor="middle" x="342" y="-99.8" font-family="Times,serif" font-size="14.00" fill="#000000">BasketUiComponent</text>
</g>
<!-- FruitBasketModule -->
<g id="node3" class="node">
<title>FruitBasketModule</title>
<polygon fill="#8dd3c7" stroke="#000000" points="319.3753,-187 316.3753,-191 295.3753,-191 292.3753,-187 194.6247,-187 194.6247,-151 319.3753,-151 319.3753,-187"/>
<text text-anchor="middle" x="257" y="-164.8" font-family="Times,serif" font-size="14.00" fill="#000000">FruitBasketModule</text>
</g>
<!-- BasketUiComponent&#45;&gt;FruitBasketModule -->
<g id="edge1" class="edge">
<title>BasketUiComponent&#45;&gt;FruitBasketModule</title>
<path fill="none" stroke="#000000" d="M297.3611,-122.1061C297.3611,-122.1061 297.3611,-140.991 297.3611,-140.991"/>
<polygon fill="#000000" stroke="#000000" points="293.8612,-140.9909 297.3611,-150.991 300.8612,-140.991 293.8612,-140.9909"/>
</g>
<!-- CounterDisplayComponent -->
<g id="node2" class="node">
<title>CounterDisplayComponent</title>
<polygon fill="#ffffb3" stroke="#000000" points="256.9818,-122 87.0182,-122 87.0182,-86 256.9818,-86 256.9818,-122"/>
<text text-anchor="middle" x="172" y="-99.8" font-family="Times,serif" font-size="14.00" fill="#000000">CounterDisplayComponent</text>
</g>
<!-- CounterDisplayComponent&#45;&gt;FruitBasketModule -->
<g id="edge2" class="edge">
<title>CounterDisplayComponent&#45;&gt;FruitBasketModule</title>
<path fill="none" stroke="#000000" d="M225.7767,-122.1061C225.7767,-122.1061 225.7767,-140.991 225.7767,-140.991"/>
<polygon fill="#000000" stroke="#000000" points="222.2767,-140.9909 225.7767,-150.991 229.2767,-140.991 222.2767,-140.9909"/>
</g>
</g>
</svg>
