<?xml version="1.0" encoding="UTF-8" standalone="no"?>
<!DOCTYPE svg PUBLIC "-//W3C//DTD SVG 1.1//EN"
 "http://www.w3.org/Graphics/SVG/1.1/DTD/svg11.dtd">
<!-- Generated by graphviz version 2.40.1 (20161225.0304)
 -->
<!-- Title: dependencies Pages: 1 -->
<svg width="506pt" height="284pt"
 viewBox="0.00 0.00 506.00 284.00" xmlns="http://www.w3.org/2000/svg" xmlns:xlink="http://www.w3.org/1999/xlink">
<g id="graph0" class="graph" transform="scale(1 1) rotate(0) translate(4 280)">
<title>dependencies</title>
<polygon fill="#ffffff" stroke="transparent" points="-4,4 -4,-280 502,-280 502,4 -4,4"/>
<text text-anchor="start" x="228.0091" y="-42.4" font-family="sans-serif" font-weight="bold" font-size="14.00" fill="#000000">Legend</text>
<polygon fill="#ffffb3" stroke="transparent" points="15,-10 15,-30 35,-30 35,-10 15,-10"/>
<text text-anchor="start" x="38.629" y="-15.4" font-family="sans-serif" font-size="14.00" fill="#000000"> &#160;Declarations</text>
<polygon fill="#8dd3c7" stroke="transparent" points="128,-10 128,-30 148,-30 148,-10 128,-10"/>
<text text-anchor="start" x="151.7251" y="-15.4" font-family="sans-serif" font-size="14.00" fill="#000000"> &#160;Module</text>
<polygon fill="#80b1d3" stroke="transparent" points="214,-10 214,-30 234,-30 234,-10 214,-10"/>
<text text-anchor="start" x="237.7812" y="-15.4" font-family="sans-serif" font-size="14.00" fill="#000000"> &#160;Bootstrap</text>
<polygon fill="#fdb462" stroke="transparent" points="311,-10 311,-30 331,-30 331,-10 311,-10"/>
<text text-anchor="start" x="334.6732" y="-15.4" font-family="sans-serif" font-size="14.00" fill="#000000"> &#160;Providers</text>
<polygon fill="#fb8072" stroke="transparent" points="407,-10 407,-30 427,-30 427,-10 407,-10"/>
<text text-anchor="start" x="430.7258" y="-15.4" font-family="sans-serif" font-size="14.00" fill="#000000"> &#160;Exports</text>
<g id="clust1" class="cluster">
<title>cluster_EmployeeDisplayModule</title>
<polygon fill="none" stroke="#000000" stroke-dasharray="1,5" points="8,-70 8,-268 490,-268 490,-70 8,-70"/>
</g>
<g id="clust2" class="cluster">
<title>cluster_EmployeeDisplayModule_declarations</title>
<polygon fill="none" stroke="#000000" points="20,-78 20,-130 478,-130 478,-78 20,-78"/>
</g>
<g id="clust6" class="cluster">
<title>cluster_EmployeeDisplayModule_exports</title>
<polygon fill="none" stroke="#000000" points="16,-208 16,-260 482,-260 482,-208 16,-208"/>
</g>
<!-- EmployeeDetailViewComponent -->
<g id="node1" class="node">
<title>EmployeeDetailViewComponent</title>
<polygon fill="#ffffb3" stroke="#000000" points="470.1218,-122 267.8782,-122 267.8782,-86 470.1218,-86 470.1218,-122"/>
<text text-anchor="middle" x="369" y="-99.8" font-family="Times,serif" font-size="14.00" fill="#000000">EmployeeDetailViewComponent</text>
</g>
<!-- EmployeeDisplayModule -->
<g id="node3" class="node">
<title>EmployeeDisplayModule</title>
<polygon fill="#8dd3c7" stroke="#000000" points="219.8599,-187 216.8599,-191 195.8599,-191 192.8599,-187 60.1401,-187 60.1401,-151 219.8599,-151 219.8599,-187"/>
<text text-anchor="middle" x="140" y="-164.8" font-family="Times,serif" font-size="14.00" fill="#000000">EmployeeDisplayModule</text>
</g>
<!-- EmployeeDetailViewComponent&#45;&gt;EmployeeDisplayModule -->
<g id="edge1" class="edge">
<title>EmployeeDetailViewComponent&#45;&gt;EmployeeDisplayModule</title>
<path fill="none" stroke="#000000" d="M402.8536,-122.0225C402.8536,-139.3734 402.8536,-163 402.8536,-163 402.8536,-163 229.9353,-163 229.9353,-163"/>
<polygon fill="#000000" stroke="#000000" points="229.9354,-159.5001 219.9353,-163 229.9353,-166.5001 229.9354,-159.5001"/>
</g>
<!-- EmployeeListTableViewComponent -->
<g id="node2" class="node">
<title>EmployeeListTableViewComponent</title>
<polygon fill="#ffffb3" stroke="#000000" points="250.0646,-122 27.9354,-122 27.9354,-86 250.0646,-86 250.0646,-122"/>
<text text-anchor="middle" x="139" y="-99.8" font-family="Times,serif" font-size="14.00" fill="#000000">EmployeeListTableViewComponent</text>
</g>
<!-- EmployeeListTableViewComponent&#45;&gt;EmployeeDisplayModule -->
<g id="edge2" class="edge">
<title>EmployeeListTableViewComponent&#45;&gt;EmployeeDisplayModule</title>
<path fill="none" stroke="#000000" d="M140,-122.1061C140,-122.1061 140,-140.991 140,-140.991"/>
<polygon fill="#000000" stroke="#000000" points="136.5001,-140.9909 140,-150.991 143.5001,-140.991 136.5001,-140.9909"/>
</g>
<!-- EmployeeDetailViewComponent  -->
<g id="node4" class="node">
<title>EmployeeDetailViewComponent </title>
<polygon fill="#fb8072" stroke="#000000" points="474.1214,-252 267.8786,-252 267.8786,-216 474.1214,-216 474.1214,-252"/>
<text text-anchor="middle" x="371" y="-229.8" font-family="Times,serif" font-size="14.00" fill="#000000">EmployeeDetailViewComponent </text>
</g>
<!-- EmployeeDisplayModule&#45;&gt;EmployeeDetailViewComponent  -->
<g id="edge3" class="edge">
<title>EmployeeDisplayModule&#45;&gt;EmployeeDetailViewComponent </title>
<path fill="none" stroke="#000000" stroke-dasharray="5,2" d="M220.039,-175C274.0004,-175 335.3964,-175 335.3964,-175 335.3964,-175 335.3964,-205.9775 335.3964,-205.9775"/>
<polygon fill="#000000" stroke="#000000" points="331.8965,-205.9774 335.3964,-215.9775 338.8965,-205.9775 331.8965,-205.9774"/>
</g>
<!-- EmployeeListTableViewComponent  -->
<g id="node5" class="node">
<title>EmployeeListTableViewComponent </title>
<polygon fill="#fb8072" stroke="#000000" points="249.565,-252 24.435,-252 24.435,-216 249.565,-216 249.565,-252"/>
<text text-anchor="middle" x="137" y="-229.8" font-family="Times,serif" font-size="14.00" fill="#000000">EmployeeListTableViewComponent </text>
</g>
<!-- EmployeeDisplayModule&#45;&gt;EmployeeListTableViewComponent  -->
<g id="edge4" class="edge">
<title>EmployeeDisplayModule&#45;&gt;EmployeeListTableViewComponent </title>
<path fill="none" stroke="#000000" stroke-dasharray="5,2" d="M140,-187.1061C140,-187.1061 140,-205.991 140,-205.991"/>
<polygon fill="#000000" stroke="#000000" points="136.5001,-205.9909 140,-215.991 143.5001,-205.991 136.5001,-205.9909"/>
</g>
</g>
</svg>
