<?xml version="1.0" encoding="UTF-8" standalone="no"?>
<!DOCTYPE svg PUBLIC "-//W3C//DTD SVG 1.1//EN"
 "http://www.w3.org/Graphics/SVG/1.1/DTD/svg11.dtd">
<!-- Generated by graphviz version 2.40.1 (20161225.0304)
 -->
<!-- Title: dependencies Pages: 1 -->
<svg width="3193pt" height="211pt"
 viewBox="0.00 0.00 3193.00 211.00" xmlns="http://www.w3.org/2000/svg" xmlns:xlink="http://www.w3.org/1999/xlink">
<g id="graph0" class="graph" transform="scale(1 1) rotate(0) translate(4 207)">
<title>dependencies</title>
<polygon fill="#ffffff" stroke="transparent" points="-4,4 -4,-207 3189,-207 3189,4 -4,4"/>
<text text-anchor="start" x="1571.5091" y="-42.4" font-family="sans-serif" font-weight="bold" font-size="14.00" fill="#000000">Legend</text>
<polygon fill="#ffffb3" stroke="transparent" points="1358.5,-10 1358.5,-30 1378.5,-30 1378.5,-10 1358.5,-10"/>
<text text-anchor="start" x="1382.129" y="-15.4" font-family="sans-serif" font-size="14.00" fill="#000000"> &#160;Declarations</text>
<polygon fill="#8dd3c7" stroke="transparent" points="1471.5,-10 1471.5,-30 1491.5,-30 1491.5,-10 1471.5,-10"/>
<text text-anchor="start" x="1495.2251" y="-15.4" font-family="sans-serif" font-size="14.00" fill="#000000"> &#160;Module</text>
<polygon fill="#80b1d3" stroke="transparent" points="1557.5,-10 1557.5,-30 1577.5,-30 1577.5,-10 1557.5,-10"/>
<text text-anchor="start" x="1581.2812" y="-15.4" font-family="sans-serif" font-size="14.00" fill="#000000"> &#160;Bootstrap</text>
<polygon fill="#fdb462" stroke="transparent" points="1654.5,-10 1654.5,-30 1674.5,-30 1674.5,-10 1654.5,-10"/>
<text text-anchor="start" x="1678.1732" y="-15.4" font-family="sans-serif" font-size="14.00" fill="#000000"> &#160;Providers</text>
<polygon fill="#fb8072" stroke="transparent" points="1750.5,-10 1750.5,-30 1770.5,-30 1770.5,-10 1750.5,-10"/>
<text text-anchor="start" x="1774.2258" y="-15.4" font-family="sans-serif" font-size="14.00" fill="#000000"> &#160;Exports</text>
<g id="clust1" class="cluster">
<title>cluster_VideoStatDashboardModule</title>
<polygon fill="none" stroke="#000000" stroke-dasharray="1,5" points="8,-70 8,-195 3177,-195 3177,-70 8,-70"/>
</g>
<g id="clust2" class="cluster">
<title>cluster_VideoStatDashboardModule_declarations</title>
<polygon fill="none" stroke="#000000" points="1241,-78 1241,-130 3169,-130 3169,-78 1241,-78"/>
</g>
<g id="clust13" class="cluster">
<title>cluster_VideoStatDashboardModule_imports</title>
<polygon fill="none" stroke="#000000" points="1099,-78 1099,-130 1233,-130 1233,-78 1099,-78"/>
</g>
<g id="clust16" class="cluster">
<title>cluster_VideoStatDashboardModule_providers</title>
<polygon fill="none" stroke="#000000" points="16,-78 16,-130 1091,-130 1091,-78 16,-78"/>
</g>
<!-- DashboardComponent -->
<g id="node1" class="node">
<title>DashboardComponent</title>
<polygon fill="#ffffb3" stroke="#000000" points="3160.9734,-122 3019.0266,-122 3019.0266,-86 3160.9734,-86 3160.9734,-122"/>
<text text-anchor="middle" x="3090" y="-99.8" font-family="Times,serif" font-size="14.00" fill="#000000">DashboardComponent</text>
</g>
<!-- VideoStatDashboardModule -->
<g id="node11" class="node">
<title>VideoStatDashboardModule</title>
<polygon fill="#8dd3c7" stroke="#000000" points="1623.1811,-187 1620.1811,-191 1599.1811,-191 1596.1811,-187 1446.8189,-187 1446.8189,-151 1623.1811,-151 1623.1811,-187"/>
<text text-anchor="middle" x="1535" y="-164.8" font-family="Times,serif" font-size="14.00" fill="#000000">VideoStatDashboardModule</text>
</g>
<!-- DashboardComponent&#45;&gt;VideoStatDashboardModule -->
<g id="edge1" class="edge">
<title>DashboardComponent&#45;&gt;VideoStatDashboardModule</title>
<path fill="none" stroke="#000000" d="M3090,-122.3228C3090,-145.6602 3090,-183 3090,-183 3090,-183 1633.3408,-183 1633.3408,-183"/>
<polygon fill="#000000" stroke="#000000" points="1633.3408,-179.5001 1623.3408,-183 1633.3407,-186.5001 1633.3408,-179.5001"/>
</g>
<!-- ViewsFilterComponent -->
<g id="node2" class="node">
<title>ViewsFilterComponent</title>
<polygon fill="#ffffb3" stroke="#000000" points="3000.9256,-122 2853.0744,-122 2853.0744,-86 3000.9256,-86 3000.9256,-122"/>
<text text-anchor="middle" x="2927" y="-99.8" font-family="Times,serif" font-size="14.00" fill="#000000">ViewsFilterComponent</text>
</g>
<!-- ViewsFilterComponent&#45;&gt;VideoStatDashboardModule -->
<g id="edge2" class="edge">
<title>ViewsFilterComponent&#45;&gt;VideoStatDashboardModule</title>
<path fill="none" stroke="#000000" d="M2927,-122.1554C2927,-144.3519 2927,-179 2927,-179 2927,-179 1633.1319,-179 1633.1319,-179"/>
<polygon fill="#000000" stroke="#000000" points="1633.1319,-175.5001 1623.1319,-179 1633.1318,-182.5001 1633.1319,-175.5001"/>
</g>
<!-- ViewsFilterDisplayComponent -->
<g id="node3" class="node">
<title>ViewsFilterDisplayComponent</title>
<polygon fill="#ffffb3" stroke="#000000" points="2835.472,-122 2644.528,-122 2644.528,-86 2835.472,-86 2835.472,-122"/>
<text text-anchor="middle" x="2740" y="-99.8" font-family="Times,serif" font-size="14.00" fill="#000000">ViewsFilterDisplayComponent</text>
</g>
<!-- ViewsFilterDisplayComponent&#45;&gt;VideoStatDashboardModule -->
<g id="edge3" class="edge">
<title>ViewsFilterDisplayComponent&#45;&gt;VideoStatDashboardModule</title>
<path fill="none" stroke="#000000" d="M2740,-122.2843C2740,-143.3211 2740,-175 2740,-175 2740,-175 1633.1183,-175 1633.1183,-175"/>
<polygon fill="#000000" stroke="#000000" points="1633.1184,-171.5001 1623.1183,-175 1633.1183,-178.5001 1633.1184,-171.5001"/>
</g>
<!-- VideoContainerComponent -->
<g id="node4" class="node">
<title>VideoContainerComponent</title>
<polygon fill="#ffffb3" stroke="#000000" points="2626.252,-122 2455.748,-122 2455.748,-86 2626.252,-86 2626.252,-122"/>
<text text-anchor="middle" x="2541" y="-99.8" font-family="Times,serif" font-size="14.00" fill="#000000">VideoContainerComponent</text>
</g>
<!-- VideoContainerComponent&#45;&gt;VideoStatDashboardModule -->
<g id="edge4" class="edge">
<title>VideoContainerComponent&#45;&gt;VideoStatDashboardModule</title>
<path fill="none" stroke="#000000" d="M2541,-122.308C2541,-142.1455 2541,-171 2541,-171 2541,-171 1633.3941,-171 1633.3941,-171"/>
<polygon fill="#000000" stroke="#000000" points="1633.3941,-167.5001 1623.3941,-171 1633.3941,-174.5001 1633.3941,-167.5001"/>
</g>
<!-- VideoContainerDisplayComponent -->
<g id="node5" class="node">
<title>VideoContainerDisplayComponent</title>
<polygon fill="#ffffb3" stroke="#000000" points="2437.299,-122 2222.701,-122 2222.701,-86 2437.299,-86 2437.299,-122"/>
<text text-anchor="middle" x="2330" y="-99.8" font-family="Times,serif" font-size="14.00" fill="#000000">VideoContainerDisplayComponent</text>
</g>
<!-- VideoContainerDisplayComponent&#45;&gt;VideoStatDashboardModule -->
<g id="edge5" class="edge">
<title>VideoContainerDisplayComponent&#45;&gt;VideoStatDashboardModule</title>
<path fill="none" stroke="#000000" d="M2330,-122.2222C2330,-140.8285 2330,-167 2330,-167 2330,-167 1633.1164,-167 1633.1164,-167"/>
<polygon fill="#000000" stroke="#000000" points="1633.1165,-163.5001 1623.1164,-167 1633.1164,-170.5001 1633.1165,-163.5001"/>
</g>
<!-- ViewsBreakdownComponent -->
<g id="node6" class="node">
<title>ViewsBreakdownComponent</title>
<polygon fill="#ffffb3" stroke="#000000" points="2204.6288,-122 2023.3712,-122 2023.3712,-86 2204.6288,-86 2204.6288,-122"/>
<text text-anchor="middle" x="2114" y="-99.8" font-family="Times,serif" font-size="14.00" fill="#000000">ViewsBreakdownComponent</text>
</g>
<!-- ViewsBreakdownComponent&#45;&gt;VideoStatDashboardModule -->
<g id="edge6" class="edge">
<title>ViewsBreakdownComponent&#45;&gt;VideoStatDashboardModule</title>
<path fill="none" stroke="#000000" d="M2114,-122.0225C2114,-139.3734 2114,-163 2114,-163 2114,-163 1633.2526,-163 1633.2526,-163"/>
<polygon fill="#000000" stroke="#000000" points="1633.2526,-159.5001 1623.2526,-163 1633.2525,-166.5001 1633.2526,-159.5001"/>
</g>
<!-- ViewsBreakdownDisplayComponent -->
<g id="node7" class="node">
<title>ViewsBreakdownDisplayComponent</title>
<polygon fill="#ffffb3" stroke="#000000" points="2005.6755,-122 1780.3245,-122 1780.3245,-86 2005.6755,-86 2005.6755,-122"/>
<text text-anchor="middle" x="1893" y="-99.8" font-family="Times,serif" font-size="14.00" fill="#000000">ViewsBreakdownDisplayComponent</text>
</g>
<!-- ViewsBreakdownDisplayComponent&#45;&gt;VideoStatDashboardModule -->
<g id="edge7" class="edge">
<title>ViewsBreakdownDisplayComponent&#45;&gt;VideoStatDashboardModule</title>
<path fill="none" stroke="#000000" d="M1893,-122.0091C1893,-138.0494 1893,-159 1893,-159 1893,-159 1633.4944,-159 1633.4944,-159"/>
<polygon fill="#000000" stroke="#000000" points="1633.4944,-155.5001 1623.4944,-159 1633.4944,-162.5001 1633.4944,-155.5001"/>
</g>
<!-- TopListComponent -->
<g id="node8" class="node">
<title>TopListComponent</title>
<polygon fill="#ffffb3" stroke="#000000" points="1762.6638,-122 1637.3362,-122 1637.3362,-86 1762.6638,-86 1762.6638,-122"/>
<text text-anchor="middle" x="1700" y="-99.8" font-family="Times,serif" font-size="14.00" fill="#000000">TopListComponent</text>
</g>
<!-- TopListComponent&#45;&gt;VideoStatDashboardModule -->
<g id="edge8" class="edge">
<title>TopListComponent&#45;&gt;VideoStatDashboardModule</title>
<path fill="none" stroke="#000000" d="M1700,-122.1243C1700,-136.7832 1700,-155 1700,-155 1700,-155 1633.2965,-155 1633.2965,-155"/>
<polygon fill="#000000" stroke="#000000" points="1633.2966,-151.5001 1623.2965,-155 1633.2965,-158.5001 1633.2966,-151.5001"/>
</g>
<!-- TopListDisplayComponent -->
<g id="node9" class="node">
<title>TopListDisplayComponent</title>
<polygon fill="#ffffb3" stroke="#000000" points="1619.7105,-122 1450.2895,-122 1450.2895,-86 1619.7105,-86 1619.7105,-122"/>
<text text-anchor="middle" x="1535" y="-99.8" font-family="Times,serif" font-size="14.00" fill="#000000">TopListDisplayComponent</text>
</g>
<!-- TopListDisplayComponent&#45;&gt;VideoStatDashboardModule -->
<g id="edge9" class="edge">
<title>TopListDisplayComponent&#45;&gt;VideoStatDashboardModule</title>
<path fill="none" stroke="#000000" d="M1535,-122.1061C1535,-122.1061 1535,-140.991 1535,-140.991"/>
<polygon fill="#000000" stroke="#000000" points="1531.5001,-140.9909 1535,-150.991 1538.5001,-140.991 1531.5001,-140.9909"/>
</g>
<!-- FilterStateDisplayComponent -->
<g id="node10" class="node">
<title>FilterStateDisplayComponent</title>
<polygon fill="#ffffb3" stroke="#000000" points="1432.7021,-122 1249.2979,-122 1249.2979,-86 1432.7021,-86 1432.7021,-122"/>
<text text-anchor="middle" x="1341" y="-99.8" font-family="Times,serif" font-size="14.00" fill="#000000">FilterStateDisplayComponent</text>
</g>
<!-- FilterStateDisplayComponent&#45;&gt;VideoStatDashboardModule -->
<g id="edge10" class="edge">
<title>FilterStateDisplayComponent&#45;&gt;VideoStatDashboardModule</title>
<path fill="none" stroke="#000000" d="M1341,-122.1243C1341,-136.7832 1341,-155 1341,-155 1341,-155 1436.7988,-155 1436.7988,-155"/>
<polygon fill="#000000" stroke="#000000" points="1436.7988,-158.5001 1446.7988,-155 1436.7988,-151.5001 1436.7988,-158.5001"/>
</g>
<!-- AgeRangeModule -->
<g id="node12" class="node">
<title>AgeRangeModule</title>
<polygon fill="#8dd3c7" stroke="#000000" points="1225.1374,-122 1222.1374,-126 1201.1374,-126 1198.1374,-122 1106.8626,-122 1106.8626,-86 1225.1374,-86 1225.1374,-122"/>
<text text-anchor="middle" x="1166" y="-99.8" font-family="Times,serif" font-size="14.00" fill="#000000">AgeRangeModule</text>
</g>
<!-- AgeRangeModule&#45;&gt;VideoStatDashboardModule -->
<g id="edge11" class="edge">
<title>AgeRangeModule&#45;&gt;VideoStatDashboardModule</title>
<path fill="none" stroke="#000000" d="M1166,-122.0091C1166,-138.0494 1166,-159 1166,-159 1166,-159 1436.6153,-159 1436.6153,-159"/>
<polygon fill="#000000" stroke="#000000" points="1436.6153,-162.5001 1446.6153,-159 1436.6153,-155.5001 1436.6153,-162.5001"/>
</g>
<!-- AppService -->
<g id="node13" class="node">
<title>AppService</title>
<ellipse fill="#fdb462" stroke="#000000" cx="1026" cy="-104" rx="56.7406" ry="18"/>
<text text-anchor="middle" x="1026" y="-99.8" font-family="Times,serif" font-size="14.00" fill="#000000">AppService</text>
</g>
<!-- AppService&#45;&gt;VideoStatDashboardModule -->
<g id="edge12" class="edge">
<title>AppService&#45;&gt;VideoStatDashboardModule</title>
<path fill="none" stroke="#000000" d="M1026,-122.0225C1026,-139.3734 1026,-163 1026,-163 1026,-163 1436.6297,-163 1436.6297,-163"/>
<polygon fill="#000000" stroke="#000000" points="1436.6297,-166.5001 1446.6297,-163 1436.6296,-159.5001 1436.6297,-166.5001"/>
</g>
<!-- TopListService -->
<g id="node14" class="node">
<title>TopListService</title>
<ellipse fill="#fdb462" stroke="#000000" cx="881" cy="-104" rx="70.6413" ry="18"/>
<text text-anchor="middle" x="881" y="-99.8" font-family="Times,serif" font-size="14.00" fill="#000000">TopListService</text>
</g>
<!-- TopListService&#45;&gt;VideoStatDashboardModule -->
<g id="edge13" class="edge">
<title>TopListService&#45;&gt;VideoStatDashboardModule</title>
<path fill="none" stroke="#000000" d="M881,-122.2222C881,-140.8285 881,-167 881,-167 881,-167 1436.7987,-167 1436.7987,-167"/>
<polygon fill="#000000" stroke="#000000" points="1436.7987,-170.5001 1446.7987,-167 1436.7986,-163.5001 1436.7987,-170.5001"/>
</g>
<!-- ViewsFilterService -->
<g id="node15" class="node">
<title>ViewsFilterService</title>
<ellipse fill="#fdb462" stroke="#000000" cx="707" cy="-104" rx="85.6628" ry="18"/>
<text text-anchor="middle" x="707" y="-99.8" font-family="Times,serif" font-size="14.00" fill="#000000">ViewsFilterService</text>
</g>
<!-- ViewsFilterService&#45;&gt;VideoStatDashboardModule -->
<g id="edge14" class="edge">
<title>ViewsFilterService&#45;&gt;VideoStatDashboardModule</title>
<path fill="none" stroke="#000000" d="M707,-122.308C707,-142.1455 707,-171 707,-171 707,-171 1436.7818,-171 1436.7818,-171"/>
<polygon fill="#000000" stroke="#000000" points="1436.7818,-174.5001 1446.7818,-171 1436.7818,-167.5001 1436.7818,-174.5001"/>
</g>
<!-- DashboardService -->
<g id="node16" class="node">
<title>DashboardService</title>
<ellipse fill="#fdb462" stroke="#000000" cx="522" cy="-104" rx="81.6423" ry="18"/>
<text text-anchor="middle" x="522" y="-99.8" font-family="Times,serif" font-size="14.00" fill="#000000">DashboardService</text>
</g>
<!-- DashboardService&#45;&gt;VideoStatDashboardModule -->
<g id="edge15" class="edge">
<title>DashboardService&#45;&gt;VideoStatDashboardModule</title>
<path fill="none" stroke="#000000" d="M522,-122.2843C522,-143.3211 522,-175 522,-175 522,-175 1436.875,-175 1436.875,-175"/>
<polygon fill="#000000" stroke="#000000" points="1436.875,-178.5001 1446.875,-175 1436.8749,-171.5001 1436.875,-178.5001"/>
</g>
<!-- ViewsBreakdownService -->
<g id="node17" class="node">
<title>ViewsBreakdownService</title>
<ellipse fill="#fdb462" stroke="#000000" cx="313" cy="-104" rx="109.3488" ry="18"/>
<text text-anchor="middle" x="313" y="-99.8" font-family="Times,serif" font-size="14.00" fill="#000000">ViewsBreakdownService</text>
</g>
<!-- ViewsBreakdownService&#45;&gt;VideoStatDashboardModule -->
<g id="edge16" class="edge">
<title>ViewsBreakdownService&#45;&gt;VideoStatDashboardModule</title>
<path fill="none" stroke="#000000" d="M313,-122.1554C313,-144.3519 313,-179 313,-179 313,-179 1436.6252,-179 1436.6252,-179"/>
<polygon fill="#000000" stroke="#000000" points="1436.6252,-182.5001 1446.6252,-179 1436.6252,-175.5001 1436.6252,-182.5001"/>
</g>
<!-- VideoStatsEffects -->
<g id="node18" class="node">
<title>VideoStatsEffects</title>
<ellipse fill="#fdb462" stroke="#000000" cx="105" cy="-104" rx="80.5104" ry="18"/>
<text text-anchor="middle" x="105" y="-99.8" font-family="Times,serif" font-size="14.00" fill="#000000">VideoStatsEffects</text>
</g>
<!-- VideoStatsEffects&#45;&gt;VideoStatDashboardModule -->
<g id="edge17" class="edge">
<title>VideoStatsEffects&#45;&gt;VideoStatDashboardModule</title>
<path fill="none" stroke="#000000" d="M105,-122.3228C105,-145.6602 105,-183 105,-183 105,-183 1436.8952,-183 1436.8952,-183"/>
<polygon fill="#000000" stroke="#000000" points="1436.8952,-186.5001 1446.8952,-183 1436.8951,-179.5001 1436.8952,-186.5001"/>
</g>
</g>
</svg>
