<?xml version="1.0" encoding="UTF-8" standalone="no"?>
<!DOCTYPE svg PUBLIC "-//W3C//DTD SVG 1.1//EN"
 "http://www.w3.org/Graphics/SVG/1.1/DTD/svg11.dtd">
<!-- Generated by graphviz version 2.40.1 (20161225.0304)
 -->
<!-- Title: dependencies Pages: 1 -->
<svg width="556pt" height="211pt"
 viewBox="0.00 0.00 556.00 211.00" xmlns="http://www.w3.org/2000/svg" xmlns:xlink="http://www.w3.org/1999/xlink">
<g id="graph0" class="graph" transform="scale(1 1) rotate(0) translate(4 207)">
<title>dependencies</title>
<polygon fill="#ffffff" stroke="transparent" points="-4,4 -4,-207 552,-207 552,4 -4,4"/>
<text text-anchor="start" x="253.0091" y="-42.4" font-family="sans-serif" font-weight="bold" font-size="14.00" fill="#000000">Legend</text>
<polygon fill="#ffffb3" stroke="transparent" points="40,-10 40,-30 60,-30 60,-10 40,-10"/>
<text text-anchor="start" x="63.629" y="-15.4" font-family="sans-serif" font-size="14.00" fill="#000000"> &#160;Declarations</text>
<polygon fill="#8dd3c7" stroke="transparent" points="153,-10 153,-30 173,-30 173,-10 153,-10"/>
<text text-anchor="start" x="176.7251" y="-15.4" font-family="sans-serif" font-size="14.00" fill="#000000"> &#160;Module</text>
<polygon fill="#80b1d3" stroke="transparent" points="239,-10 239,-30 259,-30 259,-10 239,-10"/>
<text text-anchor="start" x="262.7812" y="-15.4" font-family="sans-serif" font-size="14.00" fill="#000000"> &#160;Bootstrap</text>
<polygon fill="#fdb462" stroke="transparent" points="336,-10 336,-30 356,-30 356,-10 336,-10"/>
<text text-anchor="start" x="359.6732" y="-15.4" font-family="sans-serif" font-size="14.00" fill="#000000"> &#160;Providers</text>
<polygon fill="#fb8072" stroke="transparent" points="432,-10 432,-30 452,-30 452,-10 432,-10"/>
<text text-anchor="start" x="455.7258" y="-15.4" font-family="sans-serif" font-size="14.00" fill="#000000"> &#160;Exports</text>
<g id="clust1" class="cluster">
<title>cluster_EmployeeSearchModule</title>
<polygon fill="none" stroke="#000000" stroke-dasharray="1,5" points="8,-70 8,-195 540,-195 540,-70 8,-70"/>
</g>
<g id="clust2" class="cluster">
<title>cluster_EmployeeSearchModule_declarations</title>
<polygon fill="none" stroke="#000000" points="356,-78 356,-130 532,-130 532,-78 356,-78"/>
</g>
<g id="clust4" class="cluster">
<title>cluster_EmployeeSearchModule_imports</title>
<polygon fill="none" stroke="#000000" points="16,-78 16,-130 348,-130 348,-78 16,-78"/>
</g>
<!-- EmployeeListComponent -->
<g id="node1" class="node">
<title>EmployeeListComponent</title>
<polygon fill="#ffffb3" stroke="#000000" points="523.8738,-122 364.1262,-122 364.1262,-86 523.8738,-86 523.8738,-122"/>
<text text-anchor="middle" x="444" y="-99.8" font-family="Times,serif" font-size="14.00" fill="#000000">EmployeeListComponent</text>
</g>
<!-- EmployeeSearchModule -->
<g id="node2" class="node">
<title>EmployeeSearchModule</title>
<polygon fill="#8dd3c7" stroke="#000000" points="337.4003,-187 334.4003,-191 313.4003,-191 310.4003,-187 182.5997,-187 182.5997,-151 337.4003,-151 337.4003,-187"/>
<text text-anchor="middle" x="260" y="-164.8" font-family="Times,serif" font-size="14.00" fill="#000000">EmployeeSearchModule</text>
</g>
<!-- EmployeeListComponent&#45;&gt;EmployeeSearchModule -->
<g id="edge1" class="edge">
<title>EmployeeListComponent&#45;&gt;EmployeeSearchModule</title>
<path fill="none" stroke="#000000" d="M444,-122.1061C444,-141.3391 444,-169 444,-169 444,-169 347.2328,-169 347.2328,-169"/>
<polygon fill="#000000" stroke="#000000" points="347.2328,-165.5001 337.2328,-169 347.2328,-172.5001 347.2328,-165.5001"/>
</g>
<!-- EmployeeDisplayModule -->
<g id="node3" class="node">
<title>EmployeeDisplayModule</title>
<polygon fill="#8dd3c7" stroke="#000000" points="339.8599,-122 336.8599,-126 315.8599,-126 312.8599,-122 180.1401,-122 180.1401,-86 339.8599,-86 339.8599,-122"/>
<text text-anchor="middle" x="260" y="-99.8" font-family="Times,serif" font-size="14.00" fill="#000000">EmployeeDisplayModule</text>
</g>
<!-- EmployeeDisplayModule&#45;&gt;EmployeeSearchModule -->
<g id="edge2" class="edge">
<title>EmployeeDisplayModule&#45;&gt;EmployeeSearchModule</title>
<path fill="none" stroke="#000000" d="M260,-122.1061C260,-122.1061 260,-140.991 260,-140.991"/>
<polygon fill="#000000" stroke="#000000" points="256.5001,-140.9909 260,-150.991 263.5001,-140.991 256.5001,-140.9909"/>
</g>
<!-- EmployeeApiModule -->
<g id="node4" class="node">
<title>EmployeeApiModule</title>
<polygon fill="#8dd3c7" stroke="#000000" points="161.8104,-122 158.8104,-126 137.8104,-126 134.8104,-122 24.1896,-122 24.1896,-86 161.8104,-86 161.8104,-122"/>
<text text-anchor="middle" x="93" y="-99.8" font-family="Times,serif" font-size="14.00" fill="#000000">EmployeeApiModule</text>
</g>
<!-- EmployeeApiModule&#45;&gt;EmployeeSearchModule -->
<g id="edge3" class="edge">
<title>EmployeeApiModule&#45;&gt;EmployeeSearchModule</title>
<path fill="none" stroke="#000000" d="M93,-122.1061C93,-141.3391 93,-169 93,-169 93,-169 172.3668,-169 172.3668,-169"/>
<polygon fill="#000000" stroke="#000000" points="172.3668,-172.5001 182.3668,-169 172.3668,-165.5001 172.3668,-172.5001"/>
</g>
</g>
</svg>
