<?xml version="1.0" encoding="UTF-8" standalone="no"?>
<!DOCTYPE svg PUBLIC "-//W3C//DTD SVG 1.1//EN"
 "http://www.w3.org/Graphics/SVG/1.1/DTD/svg11.dtd">
<!-- Generated by graphviz version 2.40.1 (20161225.0304)
 -->
<!-- Title: dependencies Pages: 1 -->
<svg width="582pt" height="211pt"
 viewBox="0.00 0.00 582.00 211.00" xmlns="http://www.w3.org/2000/svg" xmlns:xlink="http://www.w3.org/1999/xlink">
<g id="graph0" class="graph" transform="scale(1 1) rotate(0) translate(4 207)">
<title>dependencies</title>
<polygon fill="#ffffff" stroke="transparent" points="-4,4 -4,-207 578,-207 578,4 -4,4"/>
<text text-anchor="start" x="266.0091" y="-42.4" font-family="sans-serif" font-weight="bold" font-size="14.00" fill="#000000">Legend</text>
<polygon fill="#ffffb3" stroke="transparent" points="53,-10 53,-30 73,-30 73,-10 53,-10"/>
<text text-anchor="start" x="76.629" y="-15.4" font-family="sans-serif" font-size="14.00" fill="#000000"> &#160;Declarations</text>
<polygon fill="#8dd3c7" stroke="transparent" points="166,-10 166,-30 186,-30 186,-10 166,-10"/>
<text text-anchor="start" x="189.7251" y="-15.4" font-family="sans-serif" font-size="14.00" fill="#000000"> &#160;Module</text>
<polygon fill="#80b1d3" stroke="transparent" points="252,-10 252,-30 272,-30 272,-10 252,-10"/>
<text text-anchor="start" x="275.7812" y="-15.4" font-family="sans-serif" font-size="14.00" fill="#000000"> &#160;Bootstrap</text>
<polygon fill="#fdb462" stroke="transparent" points="349,-10 349,-30 369,-30 369,-10 349,-10"/>
<text text-anchor="start" x="372.6732" y="-15.4" font-family="sans-serif" font-size="14.00" fill="#000000"> &#160;Providers</text>
<polygon fill="#fb8072" stroke="transparent" points="445,-10 445,-30 465,-30 465,-10 445,-10"/>
<text text-anchor="start" x="468.7258" y="-15.4" font-family="sans-serif" font-size="14.00" fill="#000000"> &#160;Exports</text>
<g id="clust1" class="cluster">
<title>cluster_EmployeeManagementModule</title>
<polygon fill="none" stroke="#000000" stroke-dasharray="1,5" points="8,-70 8,-195 566,-195 566,-70 8,-70"/>
</g>
<g id="clust3" class="cluster">
<title>cluster_EmployeeManagementModule_imports</title>
<polygon fill="none" stroke="#000000" points="226,-78 226,-130 558,-130 558,-78 226,-78"/>
</g>
<g id="clust6" class="cluster">
<title>cluster_EmployeeManagementModule_providers</title>
<polygon fill="none" stroke="#000000" points="16,-78 16,-130 218,-130 218,-78 16,-78"/>
</g>
<!-- EmployeeDisplayModule -->
<g id="node1" class="node">
<title>EmployeeDisplayModule</title>
<polygon fill="#8dd3c7" stroke="#000000" points="549.8599,-122 546.8599,-126 525.8599,-126 522.8599,-122 390.1401,-122 390.1401,-86 549.8599,-86 549.8599,-122"/>
<text text-anchor="middle" x="470" y="-99.8" font-family="Times,serif" font-size="14.00" fill="#000000">EmployeeDisplayModule</text>
</g>
<!-- EmployeeManagementModule -->
<g id="node3" class="node">
<title>EmployeeManagementModule</title>
<polygon fill="#8dd3c7" stroke="#000000" points="397.8974,-187 394.8974,-191 373.8974,-191 370.8974,-187 208.1026,-187 208.1026,-151 397.8974,-151 397.8974,-187"/>
<text text-anchor="middle" x="303" y="-164.8" font-family="Times,serif" font-size="14.00" fill="#000000">EmployeeManagementModule</text>
</g>
<!-- EmployeeDisplayModule&#45;&gt;EmployeeManagementModule -->
<g id="edge1" class="edge">
<title>EmployeeDisplayModule&#45;&gt;EmployeeManagementModule</title>
<path fill="none" stroke="#000000" d="M393.8843,-122.1061C393.8843,-122.1061 393.8843,-140.991 393.8843,-140.991"/>
<polygon fill="#000000" stroke="#000000" points="390.3844,-140.9909 393.8843,-150.991 397.3844,-140.991 390.3844,-140.9909"/>
</g>
<!-- EmployeeApiModule -->
<g id="node2" class="node">
<title>EmployeeApiModule</title>
<polygon fill="#8dd3c7" stroke="#000000" points="371.8104,-122 368.8104,-126 347.8104,-126 344.8104,-122 234.1896,-122 234.1896,-86 371.8104,-86 371.8104,-122"/>
<text text-anchor="middle" x="303" y="-99.8" font-family="Times,serif" font-size="14.00" fill="#000000">EmployeeApiModule</text>
</g>
<!-- EmployeeApiModule&#45;&gt;EmployeeManagementModule -->
<g id="edge2" class="edge">
<title>EmployeeApiModule&#45;&gt;EmployeeManagementModule</title>
<path fill="none" stroke="#000000" d="M303,-122.1061C303,-122.1061 303,-140.991 303,-140.991"/>
<polygon fill="#000000" stroke="#000000" points="299.5001,-140.9909 303,-150.991 306.5001,-140.991 299.5001,-140.9909"/>
</g>
<!-- EmployeeNavigation -->
<g id="node4" class="node">
<title>EmployeeNavigation</title>
<ellipse fill="#fdb462" stroke="#000000" cx="117" cy="-104" rx="93.2006" ry="18"/>
<text text-anchor="middle" x="117" y="-99.8" font-family="Times,serif" font-size="14.00" fill="#000000">EmployeeNavigation</text>
</g>
<!-- EmployeeNavigation&#45;&gt;EmployeeManagementModule -->
<g id="edge3" class="edge">
<title>EmployeeNavigation&#45;&gt;EmployeeManagementModule</title>
<path fill="none" stroke="#000000" d="M210.1523,-104C217.5408,-104 222.2226,-104 222.2226,-104 222.2226,-104 222.2226,-140.8939 222.2226,-140.8939"/>
<polygon fill="#000000" stroke="#000000" points="218.7227,-140.8938 222.2226,-150.8939 225.7227,-140.8939 218.7227,-140.8938"/>
</g>
</g>
</svg>
